<svg xmlns="http://www.w3.org/2000/svg" version="1.1" xmlns:xlink="http://www.w3.org/1999/xlink" width="512" height="512" x="0" y="0" viewBox="0 0 24 24" style="enable-background:new 0 0 512 512" xml:space="preserve" fill-rule="evenodd" class=""><g><path d="M12 20.95c-4.945 0-8.96-4.015-8.96-8.96a8.954 8.954 0 0 1 3.81-7.331.75.75 0 0 0-.863-1.227A10.451 10.451 0 0 0 1.54 11.99c0 5.773 4.687 10.46 10.46 10.46a.75.75 0 0 0 0-1.5zM12.578 3.048c4.676.298 8.382 4.191 8.382 8.942a8.94 8.94 0 0 1-3.153 6.821.75.75 0 0 0 .973 1.142 10.437 10.437 0 0 0 3.68-7.963c0-5.547-4.327-10.091-9.787-10.439a.75.75 0 0 0-.095 1.497z"  opacity="1" data-original="#000000" class=""></path><path d="M19.79 19.185h-1.744v-1.744a.75.75 0 0 0-1.5 0v2.494c0 .414.336.75.75.75h2.494a.75.75 0 0 0 0-1.5zM4.79 3.913h1.743v1.743a.75.75 0 0 0 1.5 0V3.163a.75.75 0 0 0-.75-.75H4.79a.75.75 0 0 0 0 1.5zM12.29 6.244a5.753 5.753 0 0 0-5.75 5.75 5.752 5.752 0 0 0 5.75 5.75 5.753 5.753 0 0 0 5.75-5.75 5.753 5.753 0 0 0-5.75-5.75zm-1 3v2.5c0 .199.079.39.22.531l2 2a.75.75 0 0 0 1.06-1.061l-1.78-1.78v-2.19a.75.75 0 0 0-1.5 0z"  opacity="1" data-original="#000000" class=""></path></g></svg>