<svg xmlns="http://www.w3.org/2000/svg" version="1.1" xmlns:xlink="http://www.w3.org/1999/xlink" width="512" height="512" x="0" y="0" viewBox="0 0 512 512" style="enable-background:new 0 0 512 512" xml:space="preserve" class=""><g><path d="M19 18.8C31.1 6.8 47.4.2 64.4.3 91.1.2 117.2.2 142 .2h39.4c33.9.1 62 28.2 62.6 62.8.7 41.3.7 79.7 0 117.2-.7 35.9-28.4 63.3-64.5 63.7-19.5.3-39.1.4-58.2.4-55.4.5-116.2 7.5-120.9-66 .2-21.5 0-42.7 0-64.1C1.7 82.2-7 43.1 19 18.8zM244.1 379.6c0 21.2-.1 43.2.1 64.8 1 36.2-28.7 68-64.9 67.4-30-.7-62.4.1-92.8-.1-23.9 1.1-50.5-.2-67.5-18.7C2.5 477.7-1.1 453.6.3 431.6c-.1-32.9-.1-66.9.2-100.4.1-28.6 19.4-53.5 47-60.8 25.8-5.2 49.9-1.6 78.9-2.7 16.7 0 33.3 0 50 .1 69.1 3.6 69.9 56.7 67.7 111.8zM476.1 303.7c76.3 75.4 21.3 208.8-86.2 208.1-106.8.6-163.2-132.6-86.2-207.9 45.5-47.5 126.9-48 172.4-.2zM268 178.9c-.5-40.7-.5-78.2 0-114.5C267.9 29.1 296.5.3 331.8.2h.8c38.3-.3 76.5-.3 116.5 0 33.1-.5 62.9 29.6 62.5 62.7.2 22.3 0 44.2 0 66.3-1.1 32 6.9 71.7-18.7 95.9-26.1 27.3-69.4 17-103.2 19.1-19.2 0-38.4-.1-57-.4-35.6.1-64.6-28.6-64.7-64.3v-.6z"  opacity="1" data-original="#000000" class=""></path></g></svg>