<svg xmlns="http://www.w3.org/2000/svg" version="1.1" xmlns:xlink="http://www.w3.org/1999/xlink" width="512" height="512" x="0" y="0" viewBox="0 0 64 64" style="enable-background:new 0 0 512 512" xml:space="preserve" class=""><g><linearGradient id="a" x1="4.027" x2="60" y1="32" y2="32" gradientUnits="userSpaceOnUse"><stop offset="0" stop-color="#9cffac"></stop><stop offset="1" stop-color="#00b59c"></stop></linearGradient><path fill="url(#a)" d="M59.996 32c.154-2.605-4.043-4.181-4.96-6.173a6.454 6.454 0 0 1 .71-3.006c1.92-4.3.645-6.332-3.974-6.819a6.405 6.405 0 0 1-2.912-.86c-1.288-1.776-.55-6.218-2.857-7.39-2.164-1.405-5.647 1.475-7.83 1.212-1.988-.925-3.571-5.111-6.173-4.96-2.604-.154-4.182 4.042-6.173 4.96a6.469 6.469 0 0 1-3.006-.71c-4.3-1.922-6.332-.645-6.819 3.974a6.408 6.408 0 0 1-.86 2.913c-1.774 1.288-6.218.55-7.388 2.856-1.41 2.164 1.474 5.648 1.21 7.83-.169.63-1.168 1.434-2.048 2.144-3.869 2.792-3.836 5.283 0 8.059 2.447 1.866 2.488 2.31 1.338 5.15-1.92 4.3-.644 6.33 3.974 6.818 3.046.41 3.367.707 3.773 3.773.486 4.657 2.55 5.873 6.82 3.976a6.452 6.452 0 0 1 3.005-.711c1.99.925 3.571 5.11 6.174 4.96 2.604.154 4.181-4.042 6.173-4.96 2.186-.257 5.662 2.616 7.829 1.211 2.31-1.17 1.563-5.617 2.857-7.387 1.774-1.288 6.217-.55 7.387-2.857 1.41-2.165-1.474-5.647-1.21-7.83.925-1.99 5.11-3.57 4.96-6.173zm-6.116 9.897c1.334 3.287 1.03 3.629-2.417 4.125-3.788.416-5.03 1.634-5.442 5.442-.198 1.268-.421 2.707-1.02 3.053-1.842.527-5.284-2.176-7.344-1.413-2.15.393-3.754 4.47-5.657 4.892-2.184-.536-3.667-5.237-6.517-5-1.844-.147-4.903 2.013-6.484 1.52-1.405-1.32-.76-5.662-2.445-7.07-1.413-1.676-5.73-1.05-7.071-2.446-.334-.578.181-1.92.636-3.103 1.507-3.467 1.155-5.17-1.948-7.425-2.851-2.212-2.817-2.748 0-4.944 3.084-2.248 3.468-3.942 1.95-7.425-.456-1.184-.972-2.526-.637-3.105 1.333-1.397 5.66-.771 7.07-2.444 1.675-1.412 1.05-5.73 2.446-7.07 1.848-.526 5.274 2.171 7.344 1.412 2.149-.393 3.753-4.47 5.656-4.892.727 0 1.654 1.15 2.472 2.166 2.247 3.085 3.943 3.469 7.425 1.95 3.29-1.335 3.627-1.029 4.125 2.417.416 3.788 1.634 5.03 5.442 5.441 1.268.198 2.707.422 3.053 1.02.529 1.84-2.172 5.275-1.413 7.345.393 2.15 4.47 3.755 4.892 5.657 0 .727-1.151 1.654-2.165 2.471-3.086 2.248-3.47 3.944-1.951 7.426zM15.002 32a16.998 16.998 0 0 0 33.996 0c-.93-22.543-33.062-22.55-33.995 0zm2 0a14.998 14.998 0 0 1 29.996 0c-.82 19.89-29.173 19.897-29.996 0zm23.704-4.626L30.04 38.04a1 1 0 0 1-1.414 0l-5.332-5.332a1 1 0 1 1 1.414-1.414l4.625 4.625 9.959-9.958a1 1 0 0 1 1.414 1.414z" opacity="1" data-original="url(#a)" class=""></path></g></svg>