<svg xmlns="http://www.w3.org/2000/svg" version="1.1" xmlns:xlink="http://www.w3.org/1999/xlink" width="512" height="512" x="0" y="0" viewBox="0 0 512 512" style="enable-background:new 0 0 512 512" xml:space="preserve" class=""><g><path fill-rule="evenodd" d="M144.862 200.474a95.028 95.028 0 0 1-22.673-43.247h-70.02a21.624 21.624 0 0 0 0 43.247zm190.563-12.689a7.265 7.265 0 0 1-14.244.476 102.842 102.842 0 0 1-2.733-23.872q.009-3.576.259-7.162h-10.849a95.013 95.013 0 0 1-22.672 43.247h85.471a2 2 0 0 0 1.974-1.974v-39.3a2 2 0 0 0-1.974-1.974h-20.072a76.851 76.851 0 0 0-15.16 30.558zm-14.663-45.1q.246-1.149.52-2.3a123.4 123.4 0 0 1 32.324-58.257c12.836-12.769 28.442-22.019 45.618-25.715l-5.305-17.65a7.263 7.263 0 0 1 10.13-8.609l87.456 36.01a7.254 7.254 0 0 1 3.068 11.024c-18.788 25.193-37.38 50.572-56.063 75.848a7.259 7.259 0 0 1-12.858-2.559L419.6 126.4c-19.339.147-38 5.687-53.042 16.126l-.218.152h4.319a16.549 16.549 0 0 1 16.52 16.52v39.3c0 .425-.331 2.131.083 2.167a50.229 50.229 0 0 1 45.69 49.889v47.951a28.854 28.854 0 0 1 17.834 26.58v32.874a28.85 28.85 0 0 1-17.834 26.58v47.953a50.21 50.21 0 0 1-50.082 50.082H66.082A50.21 50.21 0 0 1 16 432.494V178.85a36.256 36.256 0 0 1 36.169-36.169h67.9q-.218-3.218-.219-6.49a95.178 95.178 0 0 1 190.355 0q0 3.272-.219 6.49zm14.668 1.056a91.613 91.613 0 0 0-2.1 12.591 91.766 91.766 0 0 1 24.987-25.732c18.913-13.129 42.64-19.575 66.833-18.6a7.264 7.264 0 0 1 7.188 5.5l3.653 14.555 41.4-56.016L412.223 49.2l3.3 10.992h-.008a7.256 7.256 0 0 1-6.214 9.288c-17.077 1.751-32.781 10.306-45.471 22.931a108.65 108.65 0 0 0-28.4 51.324zm17.09 175.079a22.711 22.711 0 1 0 16.057 6.652 22.637 22.637 0 0 0-16.057-6.652zm5.773 16.936a8.166 8.166 0 1 0 2.39 5.773 8.142 8.142 0 0 0-2.39-5.773zm63.756-24.856h-87.27a14.251 14.251 0 0 0-14.19 14.19v32.874a14.251 14.251 0 0 0 14.19 14.19h87.27a14.251 14.251 0 0 0 14.189-14.19v-32.877a14.251 14.251 0 0 0-14.189-14.19zm-87.27-14.546H418.4v-45.798a35.659 35.659 0 0 0-35.536-35.536H52.169a35.958 35.958 0 0 1-21.623-7.214v224.688a35.66 35.66 0 0 0 35.536 35.536h316.786a35.66 35.66 0 0 0 35.532-35.536V386.7h-83.621a28.8 28.8 0 0 1-28.736-28.736v-32.877a28.8 28.8 0 0 1 28.736-28.736zm-71.038-95.877h-97.434a80.68 80.68 0 1 1 97.434 0zm-55.99-117.971v9.472a26.276 26.276 0 0 0-18.981 25.233c0 18.2 12.254 22.4 24.333 26.532 6.862 2.35 13.628 4.666 13.628 11.429a11.708 11.708 0 1 1-23.415 0 7.273 7.273 0 0 0-14.546 0 26.276 26.276 0 0 0 18.981 25.228v9.472a7.273 7.273 0 0 0 14.546 0V180.4a26.276 26.276 0 0 0 18.98-25.232c0-17.13-11.674-21.126-23.515-25.179-7.171-2.454-14.446-4.945-14.446-12.782a11.708 11.708 0 1 1 23.415 0 7.273 7.273 0 1 0 14.546 0A26.273 26.273 0 0 0 222.3 91.979v-9.473a7.273 7.273 0 0 0-14.546 0z" fill="#000000" opacity="1" data-original="#000000" class=""></path></g></svg>