<svg xmlns="http://www.w3.org/2000/svg" version="1.1" xmlns:xlink="http://www.w3.org/1999/xlink" width="512" height="512" x="0" y="0" viewBox="0 0 64 64" style="enable-background:new 0 0 512 512" xml:space="preserve" class=""><g><path d="M14.063 22.908h24.315a.993.993 0 0 0 0-1.986H14.063a.993.993 0 0 0 0 1.986zM14.063 30.473H29.03a.993.993 0 0 0 0-1.986H14.063a.993.993 0 0 0 0 1.986zM29.355 36.052H14.063a.993.993 0 1 0 0 1.986h15.292a.993.993 0 0 0 0-1.986zM27.085 43.616H14.063a.993.993 0 0 0 0 1.986h13.022a.993.993 0 0 0 0-1.986z"  opacity="1" data-original="#000000"></path><path d="M60.151 9.556a2.888 2.888 0 0 0-1.203-1.872L56.075 5.69a2.913 2.913 0 0 0-4.046.733l-3.806 5.486a4.013 4.013 0 0 0-3.998-3.818H8.216a4.023 4.023 0 0 0-4.018 4.02v42.3a4.023 4.023 0 0 0 4.018 4.02h36.009a4.023 4.023 0 0 0 4.018-4.02V28.215c2.653-3.826 8.844-12.748 11.435-16.483a2.889 2.889 0 0 0 .473-2.175zM46.257 54.413a2.035 2.035 0 0 1-2.033 2.033H8.216a2.035 2.035 0 0 1-2.032-2.033V12.11a2.035 2.035 0 0 1 2.032-2.033h36.009a2.035 2.035 0 0 1 2.032 2.033v2.633L34.25 32.052c-.049.107-.099.208-.145.317l-2.578 9.933a1 1 0 0 0 1.514 1.074l8.58-5.748a2.471 2.471 0 0 0 .294-.292l4.342-6.26zM35.669 34.245l3.652 2.534-5.215 3.494zm5.164 1.166-4.386-3.043L48.89 14.431l4.387 3.043zm17.214-24.813-3.638 5.244-4.386-3.043 3.637-5.243a.924.924 0 0 1 1.283-.233l2.872 1.992a.926.926 0 0 1 .232 1.283z"  opacity="1" data-original="#000000"></path></g></svg>