<svg xmlns="http://www.w3.org/2000/svg" version="1.1" xmlns:xlink="http://www.w3.org/1999/xlink" width="512" height="512" x="0" y="0" viewBox="0 0 468 468" style="enable-background:new 0 0 512 512" xml:space="preserve" class=""><g><path fill="#ffffff" d="M334.419 441.105H45.435c-11.822 0-21.406-9.597-21.406-21.436V54.077c0-11.839 9.584-21.436 21.406-21.436h288.984c11.822 0 21.406 9.597 21.406 21.436V419.67c0 11.838-9.584 21.435-21.406 21.435z" opacity="1" data-original="#ffffff" class=""></path><path fill="#e6e7e8" d="M66.771 111.124v-78H45.434c-11.822 0-21.406 9.116-21.406 20.954V419.67c0 11.838 9.584 21.618 21.406 21.618h288.984c11.822 0 21.931-9.779 21.931-21.618v-18.985c-159.929 0-289.578-129.641-289.578-289.561z" opacity="1" data-original="#e6e7e8" class=""></path><g fill="#3e4d6c"><path d="M266.833 457.132H45.435C24.793 457.132 8 440.327 8 419.67V54.077C8 33.42 24.793 16.614 45.435 16.614h36.259v32.055H45.435c-2.966 0-5.378 2.426-5.378 5.408V419.67c0 2.982 2.413 5.408 5.378 5.408h221.398zM371.853 272.116h-32.057V54.077c0-2.982-2.413-5.408-5.378-5.408h-33.625V16.614h33.625c20.642 0 37.435 16.806 37.435 37.463z" fill="#8d326a" opacity="1" data-original="#3e4d6c" class=""></path></g><path fill="#540e39" d="M252.2 64.307H127.653c-9.941 0-18-8.059-18-18V18c0-9.941 8.059-18 18-18H252.2c9.941 0 18 8.059 18 18v28.307c0 9.941-8.059 18-18 18z" opacity="1" data-original="#0795fe" class=""></path><path fill="#8d326a" d="M195.308 245.118h115.718v32.055H195.308zM195.308 148.658h115.718v32.055H195.308zM195.308 341.578h54.811v32.055h-54.811z" opacity="1" data-original="#3e4d6c" class=""></path><path fill="#540e39" d="M290.05 367.087c-8.052 46.599 23.182 91.167 69.763 99.545 46.581 8.379 90.87-22.605 98.922-69.204s-23.182-91.167-69.763-99.545-90.87 22.605-98.922 69.204z" opacity="1" data-original="#0795fe" class=""></path><path fill="#ffffff" d="m353.927 415.026-29.001-29.524 22.847-22.51 17.534 17.805 35.181-36.031 22.933 22.392-46.603 47.825c-3 3.072-13.344 9.209-22.891.043z" opacity="1" data-original="#ffffff" class=""></path><g fill="#3e4d6c"><path d="m93.641 389.156-31.127-33.901 23.624-21.647 19.318 21.073 45.919-50.036 23.617 21.675-57.731 62.839c-3.035 3.307-14.176 8.855-23.62-.003zM93.641 292.992l-31.127-33.901 23.624-21.647 19.318 21.073 45.919-50.036 23.617 21.675-57.731 62.839c-3.035 3.306-14.176 8.854-23.62-.003zM93.641 195.759l-31.127-33.901 23.624-21.647 19.318 21.073 45.919-50.036 23.617 21.675-57.731 62.839c-3.035 3.307-14.176 8.854-23.62-.003z" fill="#8d326a" opacity="1" data-original="#3e4d6c" class=""></path></g></g></svg>