<svg xmlns="http://www.w3.org/2000/svg" version="1.1" xmlns:xlink="http://www.w3.org/1999/xlink" width="512" height="512" x="0" y="0" viewBox="0 0 1024 1024" style="enable-background:new 0 0 512 512" xml:space="preserve" class=""><g><circle cx="512" cy="311.4" r="149.8" opacity="1"  class=""></circle><path d="M646.8 311.4c0 3.7-.1 7.5-.4 11.2-.1 1.8-.3 3.7-.5 5.5l-.3 2.7c.5-3.4-.2 1.1-.3 1.4-1.2 7.3-3 14.6-5.3 21.6-1 3.2-2.2 6.3-3.4 9.4-1 2.7-.3.6 0 .1-.4.8-.7 1.6-1.1 2.4-.9 2-1.9 4-2.9 6-3.3 6.4-7 12.6-11.2 18.5l-1.5 2.1c-.2.3-1.9 2.5-.8 1.1s-.6.7-.8 1.1c-.5.7-1.1 1.4-1.7 2-2.4 2.8-4.8 5.6-7.4 8.3-2.4 2.5-4.9 4.9-7.5 7.3-1.3 1.2-2.6 2.3-3.9 3.4-.7.6-1.3 1.1-2 1.7-.2.2-3.7 2.8-1.1.9-5.6 4.2-11.5 8-17.6 11.4-3.1 1.7-6.2 3.3-9.4 4.8-.6.3-5.3 2.3-2.5 1.2-2 .8-4.1 1.6-6.2 2.4-7 2.5-14.1 4.5-21.4 6-1.8.4-3.6.7-5.4 1-.4.1-3.3.5-1.4.2s-1 .1-1.4.2c-3.9.5-7.8.8-11.8.9-7.7.3-15.4 0-23-.9-.4 0-3.3-.5-1.4-.2s-1-.2-1.4-.2c-1.8-.3-3.6-.6-5.4-1-3.8-.8-7.5-1.6-11.2-2.7-3.4-1-6.8-2.1-10.2-3.3-1.7-.6-3.3-1.3-5-1.9-2.7-1-.6-.3-.1 0-1.2-.5-2.4-1.1-3.6-1.6-6.6-3.1-12.9-6.6-19-10.6-2.7-1.8-5.4-3.7-8-5.7 2.3 1.7-1.4-1.1-2.1-1.7-1.7-1.4-3.3-2.8-5-4.3-5.3-4.8-10.3-10-14.9-15.5-.6-.7-1.1-1.3-1.7-2-.3-.3-1.9-2.5-.8-1.1s-.6-.8-.8-1.1l-1.5-2.1c-2.1-3-4.2-6.1-6.1-9.3-1.8-3-3.5-6.1-5.1-9.2-.8-1.6-1.6-3.2-2.3-4.8-.4-.8-.7-1.6-1.1-2.4-1.8-3.9 1 2.8-.6-1.3-2.6-6.7-4.8-13.4-6.5-20.4-.9-3.5-1.6-7.1-2.2-10.6-.1-.9-.3-1.8-.4-2.7.4 2.8.1.5 0-.1-.3-2.3-.5-4.6-.7-6.9-.6-7.7-.5-15.4.1-23.1.1-1.8.3-3.7.5-5.5 0-.4.5-3.3.2-1.4s.2-1 .2-1.4c.6-3.8 1.4-7.6 2.3-11.3 1.7-7.2 4.1-14.1 6.8-21 .9-2.2-.9 2 0-.1.4-.8.7-1.6 1.1-2.4.7-1.6 1.5-3.2 2.3-4.8 1.7-3.3 3.5-6.6 5.4-9.8 1.8-3 3.7-5.9 5.7-8.8 1-1.4 2-2.8 3.1-4.2-1.6 2.2-.3.4.1-.1.8-1 1.6-2 2.5-3 4.6-5.5 9.6-10.7 15-15.5 1.3-1.2 2.6-2.3 4-3.4.7-.6 1.3-1.1 2-1.7.3-.3 2.5-1.9 1.1-.8-1.1.8 2.1-1.5 2.7-2 1.8-1.3 3.6-2.5 5.4-3.7 6.1-4 12.4-7.5 19-10.5.8-.4 1.6-.7 2.4-1.1 2.1-1-2.1.8.1 0 1.6-.7 3.3-1.3 5-1.9 3.6-1.3 7.2-2.5 10.8-3.5 3.5-1 7-1.8 10.5-2.5 1.8-.4 3.6-.7 5.4-1 .9-.1 1.8-.3 2.7-.4-3.3.5 1.1-.1 1.5-.2 7.4-.8 14.9-1.1 22.3-.8 3.7.1 7.4.4 11.1.8l2.7.3c-2.9-.4-.5 0 .1 0 2.2.4 4.5.8 6.7 1.2 7.2 1.5 14.4 3.5 21.3 6 1.7.6 3.3 1.3 5 1.9 2.2.9-2-.9.1 0 .8.4 1.6.7 2.4 1.1 3.4 1.6 6.7 3.3 10 5.1 3.1 1.7 6.1 3.5 9 5.4 1.5 1 2.9 1.9 4.3 2.9l2.1 1.5c.3.2 3.1 2.3 1.6 1.2-1.4-1.1.7.6 1.1.8.7.5 1.4 1.1 2 1.7 1.3 1.1 2.7 2.3 4 3.4 2.8 2.5 5.4 5 8 7.7 2.4 2.5 4.8 5.1 7 7.8 1.1 1.3 2.2 2.7 3.3 4.1-1.7-2.2-.3-.3 0 .1.8 1.1 1.5 2.1 2.3 3.2 4.2 5.9 7.9 12.1 11.1 18.6.8 1.6 1.6 3.2 2.3 4.8.4.8.7 1.6 1.1 2.4 1 2.1-.8-2.1 0 .1 1.4 3.5 2.7 7 3.9 10.6 2.3 7.1 4 14.3 5.2 21.7.1.4.5 3.3.2 1.4s.1 1 .2 1.4c.2 1.8.4 3.7.5 5.5.3 4.1.5 8.1.5 12 0 7.8 6.9 15.4 15 15s15-6.6 15-15c-.3-69.1-44.1-131-108.7-154.9-63.7-23.6-139.1-3.3-182.3 49-22 26.7-35.2 58.8-38.1 93.3-2.8 33.9 5.6 68.8 23.2 97.8 16.9 27.8 42.3 51 72.1 64.4 32.3 14.5 67.7 18.6 102.4 11.7 65.4-13.1 118.9-68.5 129-134.6 1.4-8.9 2.2-17.8 2.3-26.8 0-7.8-6.9-15.4-15-15-8.1.5-14.9 6.7-14.9 15.1zM315.8 862c-44.4 0-80.8-35.6-80.8-80v-58.4c0-.8.1-1.6.1-2.3C236 625.8 310.8 548 405 542H618.9c94.2 6 169 83.8 169.9 179.3 0 .8.1 1.6.1 2.3V782c0 44.4-36.4 80-80.8 80z" opacity="1" class=""></path><path d="M315.8 847.4c-2.3 0-4.6-.1-6.9-.3.1 0-4.3-.5-2.1-.2s-2.1-.4-2-.4c-4.6-.9-9.1-2.2-13.5-3.8-.7-.3-3.4-1.5-.7-.2-.8-.4-1.6-.7-2.4-1.1-2-1-3.9-2-5.8-3.1s-3.7-2.3-5.5-3.5c.1.1-3.3-2.5-1.6-1.2 1.3 1-2.1-1.8-2.5-2.2-2.9-2.6-5.7-5.4-8.2-8.4-.3-.3-2.8-3.7-.9-1.1l-1.5-2.1c-1.5-2.2-2.9-4.4-4.1-6.7-1.1-1.9-2-3.9-2.9-5.9 1.3 2.8-.9-2.3-1.2-3.2-1.5-4.5-2.6-9-3.4-13.7.5 3 0 0-.1-.8-.1-1.1-.2-2.3-.3-3.4-.1-1.4-.1-2.8-.1-4.3V728c0-3.8 0-7.5.1-11.3.2-4.7.5-9.3 1-14 .1-.9.2-1.8.3-2.8-.4 3 0-.1.1-.8.4-2.5.8-5 1.3-7.5 1.8-9.1 4.3-18.1 7.4-26.8.7-1.9 1.4-3.8 2.1-5.6 1.6-4.1-1.2 2.7.6-1.4.4-.8.7-1.6 1.1-2.4 2-4.4 4.2-8.8 6.6-13.1 4.3-7.7 9.1-15.1 14.5-22.1-1.6 2.2-.2.3.1-.1.8-1 1.7-2.1 2.5-3.1l3.9-4.5c3.1-3.4 6.3-6.8 9.6-10 3.2-3.1 6.4-6 9.8-8.8.7-.6 1.4-1.1 2-1.7-.1.1 3.3-2.6 1.6-1.3s1.7-1.3 1.6-1.2c1.1-.8 2.1-1.6 3.2-2.3 7.2-5.1 14.8-9.7 22.7-13.7 2-1 4-2 6-2.9 1.2-.6 2.4-1.1 3.7-1.6.5-.2 2.7-1.1.1-.1 4.4-1.8 8.8-3.4 13.3-4.8 8.9-2.8 18-5 27.2-6.5.9-.1 1.8-.3 2.7-.4-3.4.5 1.1-.1 1.5-.2 2.1-.2 4.2-.4 6.2-.6 2.3-.2 4.6-.2 6.9-.2h204.5c4.1 0 8.2.3 12.3.7 1.2.1 2.3.3 3.4.4-2.8-.4-.4-.1.1 0 2.7.4 5.4.9 8.1 1.4 8.9 1.7 17.6 4.2 26.1 7.2l6.3 2.4c4 1.6-1.6-.7.7.3 1 .4 2 .9 3.1 1.4 4.2 1.9 8.4 4 12.5 6.3 7.9 4.4 15.5 9.3 22.7 14.8-2.4-1.8 2 1.6 2.6 2.2 1.5 1.3 3 2.5 4.5 3.9 3.6 3.2 7.1 6.6 10.5 10 2.9 3 5.7 6.1 8.4 9.3 1.3 1.5 2.5 3.1 3.7 4.6-2-2.6.6.9.9 1.2.8 1.1 1.6 2.1 2.3 3.2 5.1 7.2 9.7 14.8 13.7 22.7 1 2 2 4 2.9 6 .5 1 .9 2 1.4 3 .3.7 1.4 3.4.3.7 1.7 4.4 3.4 8.8 4.8 13.3 2.8 8.9 5 18 6.4 27.2.1.9.3 1.8.4 2.7-.4-3 0 .1.1.8.2 2.1.4 4.2.6 6.2.4 5.1.6 10.1.6 15.2v61.2c-.1 2.3-.3 4.6-.5 6.9.4-3 0 0-.2.7-.3 1.5-.6 3.1-1 4.6-.5 2.2-1.1 4.3-1.9 6.4-.3.8-.6 1.7-.9 2.5 0-.1-1.6 3.9-.7 1.9s-.9 1.9-.9 1.8c-.4.8-.8 1.6-1.2 2.3-1.2 2.3-2.6 4.6-4 6.7-.5.7-1 1.4-1.5 2.2-2.3 3.5 1.9-2.1-.8 1.1-1.4 1.7-2.8 3.3-4.3 4.9-1.4 1.4-2.8 2.8-4.2 4.1-.8.7-1.6 1.4-2.5 2.1-3.1 2.8 2.3-1.5-1.1.9-3.6 2.5-7.2 4.9-11.2 6.8l-2.4 1.2c-3.8 1.9 2.7-.9-1.3.6-2.1.8-4.2 1.5-6.3 2.1s-4.3 1.2-6.5 1.6c-1.3.3-2.7.5-4 .7.6-.1 2.9-.3-.1 0-2.8.2-5.6.4-8.4.4H320.3c-1.2.4-2.9.4-4.5.4-7.8 0-15.4 6.9-15 15s6.6 15 15 15h367.7c8.2 0 16.3.1 24.5 0 39-.2 73.9-23.9 88.8-59.8 10.1-24.3 7-52.5 7-78.2 0-10.8.2-21.6-.7-32.3-1.7-19.7-6-39.1-13.6-57.4-28.8-70-98.5-122.6-175.5-123.1-40-.3-80 0-120 0h-68.4c-19.9 0-39.2 1-58.7 6-37.1 9.6-71.6 30.7-97 59.5-26.6 30.1-43.1 67-48.3 106.7-3.2 24.2-1.6 49.4-1.6 73.7 0 12.7.4 25.3 4.3 37.6 6.4 20.2 19.2 37.2 36.3 49.7 15.8 11.6 35.6 17.4 55.1 17.5 7.8.1 15.4-6.9 15-15-.3-8.1-6.5-14.9-14.9-14.9z" opacity="1"  class=""></path></g></svg>