<svg xmlns="http://www.w3.org/2000/svg" version="1.1" xmlns:xlink="http://www.w3.org/1999/xlink" width="512" height="512" x="0" y="0" viewBox="0 0 511.995 511.995" style="enable-background:new 0 0 512 512" xml:space="preserve" class=""><g><path fill="#ffe177" d="M461.533 455.301H50.467c-23.73 0-42.967-19.237-42.967-42.967v-.03c0-23.73 19.237-42.967 42.967-42.967h411.067c23.73 0 42.967 19.237 42.967 42.967v.03c-.001 23.73-19.238 42.967-42.968 42.967z" opacity="1" data-original="#ffe177" class=""></path><path fill="#ffd15b" d="M461.533 369.336h-40c23.73 0 42.967 19.237 42.967 42.967v.03c0 23.73-19.237 42.967-42.967 42.967h40c23.73 0 42.967-19.237 42.967-42.967v-.03c0-23.729-19.237-42.967-42.967-42.967z" opacity="1" data-original="#ffd15b"></path><g fill="#fea713"><path d="m100.82 369.337-48.36 85.964h71.744l48.36-85.964zM244.308 369.337l-48.36 85.964h71.744l48.36-85.964zM387.796 369.337l-48.36 85.964h71.744l48.36-85.964z" fill="#fea713" opacity="1" data-original="#fea713" class=""></path></g><path fill="#fe9901" d="M421.552 369.337c12.035.005 22.913 4.959 30.71 12.936l7.277-12.936z" opacity="1" data-original="#fe9901"></path><g fill="#fea713"><path d="M258.531 153.874a7.5 7.5 0 0 0-13.688 4.238v57.463a7.5 7.5 0 0 0 15 0v-33.239l24.848 36.28c2.183 3.177 5.84 4.533 9.319 3.453 3.549-1.102 5.842-4.413 5.842-8.507l-.533-55.63a7.5 7.5 0 0 0-7.499-7.428h-.073a7.5 7.5 0 0 0-7.428 7.571l.326 33.926zM212.148 158.004v57.57a7.5 7.5 0 0 0 15 0v-57.57a7.5 7.5 0 0 0-15 0zM395.165 126.996a7.5 7.5 0 0 0-.146-10.606l-25.25-24.564 23.093-21.403a7.5 7.5 0 0 0-10.198-11.002L364.55 76.21V64.196c0-4.142-3.357-7.5-7.5-7.5s-7.5 3.358-7.5 7.5v57.57c0 4.142 3.357 7.5 7.5 7.5s7.5-3.358 7.5-7.5v-14.09l20.01 19.466a7.474 7.474 0 0 0 5.229 2.124 7.48 7.48 0 0 0 5.376-2.27zM185.518 56.944a7.503 7.503 0 0 0-8.81 5.906l-6.334 32.092-10.063-32.937a7.5 7.5 0 0 0-14.516.663l-9.909 32.281-6.315-32.195a7.501 7.501 0 0 0-14.72 2.888l11.124 56.706c.07.356.166.707.287 1.05a8.793 8.793 0 0 0 8.288 5.871h.061a8.792 8.792 0 0 0 8.329-6.179l10.199-33.224 10.153 33.231a8.793 8.793 0 0 0 8.387 6.173h.06a8.793 8.793 0 0 0 8.267-5.982c.104-.31.189-.625.252-.946l11.168-56.584a7.504 7.504 0 0 0-5.908-8.814zM317.867 100.54c9.315-2.914 16.072-11.398 16.072-21.382 0-12.386-10.397-22.462-23.178-22.462h-15.189a7.5 7.5 0 0 0-7.5 7.5v57.57c0 4.142 3.357 7.5 7.5 7.5s7.5-3.358 7.5-7.5v-15.367l17.718 20.299a7.48 7.48 0 0 0 5.653 2.568 7.501 7.501 0 0 0 5.648-12.433zm-7.105-28.844c4.433 0 8.178 3.417 8.178 7.462 0 4.044-3.745 7.461-8.178 7.461-1.787 0-4.766.012-7.608.026a1766.66 1766.66 0 0 1-.025-7.487c0-1.489-.007-4.516-.016-7.462zM237.549 129.266c19.877 0 36.048-16.278 36.048-36.286s-16.171-36.285-36.048-36.285c-19.876 0-36.047 16.278-36.047 36.285-.001 20.009 16.17 36.286 36.047 36.286zm0-57.57c11.606 0 21.048 9.548 21.048 21.285s-9.442 21.285-21.048 21.285c-11.605 0-21.047-9.548-21.047-21.285-.001-11.737 9.441-21.285 21.047-21.285zM374.081 259.838c4.143 0 7.5-3.358 7.5-7.5s-3.357-7.5-7.5-7.5h-23.838a7.5 7.5 0 0 0-7.5 7.5v57.045a7.5 7.5 0 0 0 7.5 7.5h23.838c4.143 0 7.5-3.358 7.5-7.5s-3.357-7.5-7.5-7.5h-16.338v-13.522h14.58c4.143 0 7.5-3.358 7.5-7.5s-3.357-7.5-7.5-7.5h-14.58v-13.522h16.338zM263.109 273.098h-17.08a7.5 7.5 0 0 0 0 15h8.673c-1.862 7.354-6.76 13.785-16.237 13.785-11.605 0-21.047-9.548-21.047-21.285s9.442-21.285 21.047-21.285c4.208 0 8.267 1.25 11.739 3.615a7.5 7.5 0 1 0 8.444-12.398 35.713 35.713 0 0 0-20.183-6.217c-19.876 0-36.047 16.277-36.047 36.286 0 20.008 16.171 36.285 36.047 36.285 18.926 0 32.144-14.921 32.144-36.285a7.5 7.5 0 0 0-7.5-7.501zM429.683 274.022c-6.948-2.584-13.421-5.397-15.476-6.303-1.403-1.167-1.349-2.792-1.251-3.473.139-.958.835-3.3 4.301-4.353 7.827-2.375 15.124 3.419 15.339 3.593a7.5 7.5 0 0 0 9.658-11.477c-.546-.462-13.542-11.273-29.356-6.469-7.997 2.429-13.663 8.775-14.787 16.563-1.059 7.332 2.095 14.392 8.228 18.424.332.218.681.41 1.043.573.331.149 8.205 3.683 17.073 6.981 2.43.904 8.003 3.447 7.269 7.529-.555 3.083-4.302 6.273-9.612 6.273-5.562 0-10.915-2.261-14.318-6.047a7.5 7.5 0 0 0-10.592-.564 7.499 7.499 0 0 0-.564 10.591c6.203 6.9 15.727 11.02 25.475 11.02 12.183 0 22.435-7.829 24.375-18.616 1.465-8.154-2.178-18.805-16.805-24.245zM494.892 274.022c-6.948-2.584-13.421-5.397-15.476-6.303-1.402-1.167-1.349-2.792-1.25-3.473.138-.958.834-3.3 4.301-4.353 7.822-2.375 15.104 3.406 15.337 3.592a7.5 7.5 0 0 0 9.659-11.476c-.546-.463-13.542-11.274-29.355-6.469-7.998 2.429-13.664 8.775-14.788 16.563-1.058 7.333 2.095 14.392 8.229 18.424.331.218.68.41 1.042.573.331.149 8.205 3.683 17.072 6.981 2.43.904 8.003 3.447 7.269 7.529-.555 3.084-4.302 6.273-9.611 6.273-5.562 0-10.915-2.261-14.318-6.047a7.5 7.5 0 1 0-11.156 10.026c6.201 6.901 15.725 11.021 25.475 11.021 12.183 0 22.434-7.829 24.374-18.616 1.466-8.154-2.177-18.805-16.804-24.245zM313.539 288.157c9.315-2.914 16.072-11.398 16.072-21.382 0-12.386-10.397-22.462-23.178-22.462H291.243a7.5 7.5 0 0 0-7.5 7.5v57.57c0 4.142 3.357 7.5 7.5 7.5s7.5-3.358 7.5-7.5v-15.366l17.718 20.299a7.48 7.48 0 0 0 5.653 2.568 7.501 7.501 0 0 0 5.648-12.433zm1.071-21.383c0 4.045-3.745 7.462-8.178 7.462-1.804 0-4.823.012-7.69.026v-14.95h7.69c4.433 0 8.178 3.417 8.178 7.462zM90.255 288.157c9.315-2.914 16.072-11.398 16.072-21.382 0-12.386-10.398-22.462-23.178-22.462H67.959a7.5 7.5 0 0 0-7.5 7.5v57.57a7.5 7.5 0 0 0 15 0v-15.367l17.718 20.299a7.48 7.48 0 0 0 5.653 2.568 7.5 7.5 0 0 0 5.647-12.433zm-7.106-28.845c4.433 0 8.178 3.417 8.178 7.462s-3.745 7.462-8.178 7.462c-1.787 0-4.766.012-7.608.025-.014-2.808-.026-5.739-.026-7.487 0-1.489-.007-4.516-.015-7.462zM23.397 244.312H7.5a7.5 7.5 0 0 0-7.5 7.5v57.57a7.5 7.5 0 0 0 15 0v-17.547c3.099-.016 6.437-.03 8.397-.03 13.194 0 23.928-10.652 23.928-23.746s-10.734-23.747-23.928-23.747zm0 32.493c-1.962 0-5.294.014-8.397.03v-17.523h8.397c4.839 0 8.928 4.005 8.928 8.747 0 4.741-4.088 8.746-8.928 8.746zM153.238 244.312c-19.876 0-36.047 16.277-36.047 36.286 0 20.008 16.171 36.285 36.047 36.285s36.047-16.277 36.047-36.285-16.171-36.286-36.047-36.286zm0 57.571c-11.605 0-21.047-9.548-21.047-21.285s9.442-21.285 21.047-21.285 21.047 9.548 21.047 21.285c0 11.736-9.442 21.285-21.047 21.285z" fill="#fea713" opacity="1" data-original="#fea713" class=""></path></g><g fill="#ffe177"><path d="M460.604 194.289H329.27c-4.143 0-7.5-3.358-7.5-7.5s3.357-7.5 7.5-7.5h131.334a7.5 7.5 0 0 1 0 15zM182.73 194.289H51.396a7.5 7.5 0 0 1 0-15H182.73a7.5 7.5 0 0 1 0 15z" fill="#ffe177" opacity="1" data-original="#ffe177" class=""></path></g></g></svg>